# xmcd
# Copyright (C) 1995-1998 Ti Kan
#
# Track frame offsets:
#       150
#       20319
#       42595
#       70335
#       88757
#       112547
#
# Disc length: 1956 seconds
#
# Revision: 0
# Processed by: cddbd v1.4PL0 Copyright (c) Steve Scherf et al.
# Submitted via: CD-Transfer v1.0
#
DISCID=4307a206
DTITLE=Colafluid - 
DYEAR=2004
DGENRE=
TTITLE0=Fallin'
TTITLE1=Man On His Way
TTITLE2=Ant Me To Be
TTITLE3=Yeah Yeah
TTITLE4=No Name
TTITLE5=Last Waepon
EXTD=
EXTT0=
EXTT1=
EXTT2=
EXTT3=
EXTT4=
EXTT5=
PLAYORDER=
